<svg xmlns="http://www.w3.org/2000/svg" xmlns:xlink="http://www.w3.org/1999/xlink" width="500" zoomAndPan="magnify" viewBox="0 0 375 374.999991" height="500" preserveAspectRatio="xMidYMid meet" version="1.0"><defs><g/><clipPath id="fd9cb35f32"><path d="M 75 148.738281 L 105 148.738281 L 105 190 L 75 190 Z M 75 148.738281 " clip-rule="nonzero"/></clipPath><clipPath id="8908579d5a"><path d="M 43 148.738281 L 97 148.738281 L 97 166 L 43 166 Z M 43 148.738281 " clip-rule="nonzero"/></clipPath><clipPath id="e42531d39e"><path d="M 108 148.738281 L 141 148.738281 L 141 166 L 108 166 Z M 108 148.738281 " clip-rule="nonzero"/></clipPath><clipPath id="800beeb6ab"><path d="M 37.5 166.753906 L 146.109375 166.753906 L 146.109375 225.988281 L 37.5 225.988281 Z M 37.5 166.753906 " clip-rule="nonzero"/></clipPath><clipPath id="ed1c52da96"><rect x="0" width="213" y="0" height="59"/></clipPath></defs><rect x="-37.5" width="450" fill="#ffffff" y="-37.499999" height="449.999989" fill-opacity="1"/><rect x="-37.5" width="450" fill="#ffffff" y="-37.499999" height="449.999989" fill-opacity="1"/><g clip-path="url(#fd9cb35f32)"><path fill="#ffffff" d="M 94.898438 180.117188 L 104.109375 148.855469 L 87.769531 148.855469 L 75.753906 189.640625 C 81.449219 186.347656 87.898438 183.125 94.898438 180.117188 " fill-opacity="1" fill-rule="nonzero"/></g><path fill="#f2421b" d="M 73.136719 198.519531 L 66.933594 219.574219 L 83.273438 219.574219 L 93.109375 186.191406 C 85.355469 190.195312 78.585938 194.390625 73.136719 198.519531 " fill-opacity="1" fill-rule="nonzero"/><g clip-path="url(#8908579d5a)"><path fill="#ffffff" d="M 96.835938 148.742188 L 59.355469 148.742188 C 50.328125 148.742188 43.015625 156.054688 43.015625 165.082031 L 92.019531 165.082031 L 96.835938 148.742188 " fill-opacity="1" fill-rule="nonzero"/></g><g clip-path="url(#e42531d39e)"><path fill="#f2421b" d="M 113.175781 148.742188 L 108.363281 165.082031 L 124.328125 165.082031 C 133.351562 165.082031 140.667969 157.765625 140.667969 148.742188 L 113.175781 148.742188 " fill-opacity="1" fill-rule="nonzero"/></g><g clip-path="url(#800beeb6ab)"><path fill="#ffffff" d="M 46.566406 221.988281 C 42.429688 210.722656 68.65625 190.738281 105.144531 177.351562 C 119.945312 171.917969 134.164062 168.40625 146.109375 166.902344 C 133 166.46875 113.792969 170.128906 93.398438 177.609375 C 58.871094 190.28125 34.023438 209.117188 37.898438 219.683594 C 39.21875 223.28125 43.703125 225.457031 50.410156 226.257812 C 48.511719 225.136719 47.199219 223.714844 46.566406 221.988281 " fill-opacity="1" fill-rule="nonzero"/></g><g transform="matrix(1, 0, 0, 1, 120, 160)"><g clip-path="url(#ed1c52da96)"><g fill="#ffffff" fill-opacity="1"><g transform="translate(0.936376, 42.091852)"><g><path d="M 7.640625 0 L 7.640625 -20.046875 L 0.59375 -20.046875 L 0.59375 -25.546875 L 21.203125 -25.546875 L 21.203125 -20.046875 L 14.109375 -20.046875 L 14.109375 0 Z M 7.640625 0 "/></g></g></g><g fill="#ffffff" fill-opacity="1"><g transform="translate(22.691135, 42.091852)"><g><path d="M 17 0 L 13.65625 -8.953125 L 9.171875 -8.953125 L 9.171875 0 L 2.703125 0 L 2.703125 -25.546875 L 14.96875 -25.546875 C 17.3125 -25.546875 19.082031 -25.21875 20.28125 -24.5625 C 21.488281 -23.90625 22.28125 -23 22.65625 -21.84375 C 23.039062 -20.695312 23.234375 -19.15625 23.234375 -17.21875 C 23.234375 -15.4375 23.003906 -13.890625 22.546875 -12.578125 C 22.085938 -11.273438 21.179688 -10.328125 19.828125 -9.734375 L 23.765625 0 Z M 12.515625 -14.078125 C 13.847656 -14.078125 14.789062 -14.148438 15.34375 -14.296875 C 15.90625 -14.441406 16.269531 -14.71875 16.4375 -15.125 C 16.613281 -15.53125 16.703125 -16.21875 16.703125 -17.1875 C 16.703125 -18.175781 16.628906 -18.875 16.484375 -19.28125 C 16.335938 -19.695312 15.984375 -19.976562 15.421875 -20.125 C 14.867188 -20.269531 13.921875 -20.34375 12.578125 -20.34375 L 9.171875 -20.34375 L 9.171875 -14.078125 Z M 12.515625 -14.078125 "/></g></g></g><g fill="#ffffff" fill-opacity="1"><g transform="translate(47.898445, 42.091852)"><g><path d="M 18.828125 0 L 17.296875 -4.828125 L 8.203125 -4.828125 L 6.75 0 L 0.296875 0 L 8.46875 -25.546875 L 17.21875 -25.546875 L 25.390625 0 Z M 12.8125 -19.828125 L 12.625 -19.828125 L 9.6875 -10.0625 L 15.78125 -10.0625 Z M 12.8125 -19.828125 "/></g></g></g><g fill="#ffffff" fill-opacity="1"><g transform="translate(73.588371, 42.091852)"><g><path d="M 12.0625 0.296875 C 8.445312 0.296875 5.242188 0.0859375 2.453125 -0.328125 L 2.453125 -5.390625 C 5.472656 -5.085938 8.019531 -4.9375 10.09375 -4.9375 C 11.3125 -4.9375 12.238281 -4.984375 12.875 -5.078125 C 13.519531 -5.179688 13.976562 -5.34375 14.25 -5.5625 C 14.5 -5.757812 14.65625 -6 14.71875 -6.28125 C 14.78125 -6.570312 14.8125 -6.976562 14.8125 -7.5 C 14.8125 -8.113281 14.757812 -8.554688 14.65625 -8.828125 C 14.5625 -9.109375 14.363281 -9.300781 14.0625 -9.40625 C 13.769531 -9.519531 13.253906 -9.628906 12.515625 -9.734375 L 7.796875 -10.328125 C 6.109375 -10.523438 4.828125 -10.945312 3.953125 -11.59375 C 3.078125 -12.25 2.484375 -13.097656 2.171875 -14.140625 C 1.859375 -15.179688 1.703125 -16.484375 1.703125 -18.046875 C 1.703125 -20.242188 2.109375 -21.910156 2.921875 -23.046875 C 3.742188 -24.191406 4.84375 -24.941406 6.21875 -25.296875 C 7.59375 -25.660156 9.34375 -25.84375 11.46875 -25.84375 C 13.03125 -25.84375 14.457031 -25.78125 15.75 -25.65625 C 17.050781 -25.53125 18.472656 -25.332031 20.015625 -25.0625 L 20.015625 -20.125 C 17.066406 -20.445312 14.648438 -20.609375 12.765625 -20.609375 C 10.785156 -20.609375 9.5 -20.457031 8.90625 -20.15625 C 8.582031 -20.007812 8.378906 -19.800781 8.296875 -19.53125 C 8.210938 -19.257812 8.171875 -18.875 8.171875 -18.375 C 8.171875 -17.757812 8.210938 -17.320312 8.296875 -17.0625 C 8.378906 -16.800781 8.5625 -16.613281 8.84375 -16.5 C 9.132812 -16.382812 9.640625 -16.28125 10.359375 -16.1875 L 15.78125 -15.515625 C 16.863281 -15.390625 17.757812 -15.164062 18.46875 -14.84375 C 19.175781 -14.53125 19.765625 -13.988281 20.234375 -13.21875 C 20.953125 -12.15625 21.3125 -10.457031 21.3125 -8.125 C 21.3125 -5.695312 20.925781 -3.867188 20.15625 -2.640625 C 19.394531 -1.421875 18.367188 -0.625 17.078125 -0.25 C 15.785156 0.113281 14.113281 0.296875 12.0625 0.296875 Z M 12.0625 0.296875 "/></g></g></g><g fill="#ffffff" fill-opacity="1"><g transform="translate(96.605355, 42.091852)"><g><path d="M 2.703125 0 L 2.703125 -25.546875 L 20.828125 -25.546875 L 20.828125 -20.3125 L 9.171875 -20.3125 L 9.171875 -15.515625 L 19.046875 -15.515625 L 19.046875 -10.28125 L 9.171875 -10.28125 L 9.171875 -5.234375 L 20.828125 -5.234375 L 20.828125 0 Z M 2.703125 0 "/></g></g></g><g fill="#ffffff" fill-opacity="1"><g transform="translate(119.436719, 42.091852)"><g><path d="M 18.828125 0 L 17.296875 -4.828125 L 8.203125 -4.828125 L 6.75 0 L 0.296875 0 L 8.46875 -25.546875 L 17.21875 -25.546875 L 25.390625 0 Z M 12.8125 -19.828125 L 12.625 -19.828125 L 9.6875 -10.0625 L 15.78125 -10.0625 Z M 12.8125 -19.828125 "/></g></g></g><g fill="#ffffff" fill-opacity="1"><g transform="translate(145.126645, 42.091852)"><g><path d="M 2.703125 0 L 2.703125 -25.546875 L 9.171875 -25.546875 L 9.171875 -5.5 L 19.3125 -5.5 L 19.3125 0 Z M 2.703125 0 "/></g></g></g><g fill="#ffffff" fill-opacity="1"><g transform="translate(165.285068, 42.091852)"><g><path d="M 2.703125 0 L 2.703125 -25.546875 L 9.171875 -25.546875 L 9.171875 -5.5 L 19.3125 -5.5 L 19.3125 0 Z M 2.703125 0 "/></g></g></g><g fill="#ffffff" fill-opacity="1"><g transform="translate(185.44349, 42.091852)"><g><path d="M 18.828125 0 L 17.296875 -4.828125 L 8.203125 -4.828125 L 6.75 0 L 0.296875 0 L 8.46875 -25.546875 L 17.21875 -25.546875 L 25.390625 0 Z M 12.8125 -19.828125 L 12.625 -19.828125 L 9.6875 -10.0625 L 15.78125 -10.0625 Z M 12.8125 -19.828125 "/></g></g></g></g></g><g fill="#ffffff" fill-opacity="1"><g transform="translate(128.626227, 218.739478)"><g><path d="M 4.34375 -6.4375 L 4.34375 -5.75 L 1.546875 -5.75 L 1.546875 -3.578125 L 3.828125 -3.578125 L 3.828125 -2.90625 L 1.546875 -2.90625 L 1.546875 0 L 0.71875 0 L 0.71875 -6.4375 Z M 4.34375 -6.4375 "/></g></g></g><g fill="#ffffff" fill-opacity="1"><g transform="translate(135.129481, 218.739478)"><g><path d="M 1.53125 -6.4375 L 1.53125 -2.359375 C 1.53125 -1.785156 1.671875 -1.359375 1.953125 -1.078125 C 2.234375 -0.804688 2.625 -0.671875 3.125 -0.671875 C 3.613281 -0.671875 4 -0.804688 4.28125 -1.078125 C 4.5625 -1.359375 4.703125 -1.785156 4.703125 -2.359375 L 4.703125 -6.4375 L 5.546875 -6.4375 L 5.546875 -2.375 C 5.546875 -1.832031 5.4375 -1.378906 5.21875 -1.015625 C 5 -0.648438 4.707031 -0.378906 4.34375 -0.203125 C 3.976562 -0.0234375 3.566406 0.0625 3.109375 0.0625 C 2.648438 0.0625 2.238281 -0.0234375 1.875 -0.203125 C 1.507812 -0.378906 1.21875 -0.648438 1 -1.015625 C 0.789062 -1.378906 0.6875 -1.832031 0.6875 -2.375 L 0.6875 -6.4375 Z M 1.53125 -6.4375 "/></g></g></g><g fill="#ffffff" fill-opacity="1"><g transform="translate(143.211801, 218.739478)"><g><path d="M 4.671875 -6.4375 L 4.671875 -5.75 L 2.921875 -5.75 L 2.921875 0 L 2.078125 0 L 2.078125 -5.75 L 0.3125 -5.75 L 0.3125 -6.4375 Z M 4.671875 -6.4375 "/></g></g></g><g fill="#ffffff" fill-opacity="1"><g transform="translate(150.056718, 218.739478)"><g><path d="M 1.53125 -6.4375 L 1.53125 -2.359375 C 1.53125 -1.785156 1.671875 -1.359375 1.953125 -1.078125 C 2.234375 -0.804688 2.625 -0.671875 3.125 -0.671875 C 3.613281 -0.671875 4 -0.804688 4.28125 -1.078125 C 4.5625 -1.359375 4.703125 -1.785156 4.703125 -2.359375 L 4.703125 -6.4375 L 5.546875 -6.4375 L 5.546875 -2.375 C 5.546875 -1.832031 5.4375 -1.378906 5.21875 -1.015625 C 5 -0.648438 4.707031 -0.378906 4.34375 -0.203125 C 3.976562 -0.0234375 3.566406 0.0625 3.109375 0.0625 C 2.648438 0.0625 2.238281 -0.0234375 1.875 -0.203125 C 1.507812 -0.378906 1.21875 -0.648438 1 -1.015625 C 0.789062 -1.378906 0.6875 -1.832031 0.6875 -2.375 L 0.6875 -6.4375 Z M 1.53125 -6.4375 "/></g></g></g><g fill="#ffffff" fill-opacity="1"><g transform="translate(158.139039, 218.739478)"><g><path d="M 4.09375 0 L 2.5625 -2.625 L 1.546875 -2.625 L 1.546875 0 L 0.71875 0 L 0.71875 -6.4375 L 2.78125 -6.4375 C 3.269531 -6.4375 3.679688 -6.351562 4.015625 -6.1875 C 4.359375 -6.019531 4.613281 -5.796875 4.78125 -5.515625 C 4.945312 -5.234375 5.03125 -4.910156 5.03125 -4.546875 C 5.03125 -4.097656 4.898438 -3.703125 4.640625 -3.359375 C 4.378906 -3.023438 3.992188 -2.804688 3.484375 -2.703125 L 5.109375 0 Z M 1.546875 -3.3125 L 2.78125 -3.3125 C 3.238281 -3.3125 3.582031 -3.421875 3.8125 -3.640625 C 4.039062 -3.867188 4.15625 -4.171875 4.15625 -4.546875 C 4.15625 -4.921875 4.039062 -5.210938 3.8125 -5.421875 C 3.59375 -5.640625 3.25 -5.75 2.78125 -5.75 L 1.546875 -5.75 Z M 1.546875 -3.3125 "/></g></g></g><g fill="#ffffff" fill-opacity="1"><g transform="translate(165.602658, 218.739478)"><g><path d="M 1.546875 -5.75 L 1.546875 -3.59375 L 3.890625 -3.59375 L 3.890625 -2.90625 L 1.546875 -2.90625 L 1.546875 -0.6875 L 4.171875 -0.6875 L 4.171875 0 L 0.71875 0 L 0.71875 -6.453125 L 4.171875 -6.453125 L 4.171875 -5.75 Z M 1.546875 -5.75 "/></g></g></g><g fill="#ffffff" fill-opacity="1"><g transform="translate(172.189018, 218.739478)"><g/></g></g><g fill="#ffffff" fill-opacity="1"><g transform="translate(176.503738, 218.739478)"><g><path d="M 4.671875 -6.4375 L 4.671875 -5.75 L 2.921875 -5.75 L 2.921875 0 L 2.078125 0 L 2.078125 -5.75 L 0.3125 -5.75 L 0.3125 -6.4375 Z M 4.671875 -6.4375 "/></g></g></g><g fill="#ffffff" fill-opacity="1"><g transform="translate(183.348655, 218.739478)"><g><path d="M 4.09375 0 L 2.5625 -2.625 L 1.546875 -2.625 L 1.546875 0 L 0.71875 0 L 0.71875 -6.4375 L 2.78125 -6.4375 C 3.269531 -6.4375 3.679688 -6.351562 4.015625 -6.1875 C 4.359375 -6.019531 4.613281 -5.796875 4.78125 -5.515625 C 4.945312 -5.234375 5.03125 -4.910156 5.03125 -4.546875 C 5.03125 -4.097656 4.898438 -3.703125 4.640625 -3.359375 C 4.378906 -3.023438 3.992188 -2.804688 3.484375 -2.703125 L 5.109375 0 Z M 1.546875 -3.3125 L 2.78125 -3.3125 C 3.238281 -3.3125 3.582031 -3.421875 3.8125 -3.640625 C 4.039062 -3.867188 4.15625 -4.171875 4.15625 -4.546875 C 4.15625 -4.921875 4.039062 -5.210938 3.8125 -5.421875 C 3.59375 -5.640625 3.25 -5.75 2.78125 -5.75 L 1.546875 -5.75 Z M 1.546875 -3.3125 "/></g></g></g><g fill="#ffffff" fill-opacity="1"><g transform="translate(190.812274, 218.739478)"><g><path d="M 4.515625 -1.4375 L 1.703125 -1.4375 L 1.1875 0 L 0.3125 0 L 2.625 -6.40625 L 3.59375 -6.40625 L 5.921875 0 L 5.03125 0 Z M 4.28125 -2.109375 L 3.109375 -5.359375 L 1.953125 -2.109375 Z M 4.28125 -2.109375 "/></g></g></g><g fill="#ffffff" fill-opacity="1"><g transform="translate(198.885359, 218.739478)"><g><path d="M 6.03125 -6.4375 L 3.59375 0 L 2.625 0 L 0.203125 -6.4375 L 1.09375 -6.4375 L 3.125 -0.890625 L 5.140625 -6.4375 Z M 6.03125 -6.4375 "/></g></g></g><g fill="#ffffff" fill-opacity="1"><g transform="translate(206.976915, 218.739478)"><g><path d="M 1.546875 -5.75 L 1.546875 -3.59375 L 3.890625 -3.59375 L 3.890625 -2.90625 L 1.546875 -2.90625 L 1.546875 -0.6875 L 4.171875 -0.6875 L 4.171875 0 L 0.71875 0 L 0.71875 -6.453125 L 4.171875 -6.453125 L 4.171875 -5.75 Z M 1.546875 -5.75 "/></g></g></g><g fill="#ffffff" fill-opacity="1"><g transform="translate(213.563275, 218.739478)"><g><path d="M 1.546875 -0.6875 L 3.796875 -0.6875 L 3.796875 0 L 0.71875 0 L 0.71875 -6.4375 L 1.546875 -6.4375 Z M 1.546875 -0.6875 "/></g></g></g></svg>